<svg xmlns="http://www.w3.org/2000/svg" xmlns:xlink="http://www.w3.org/1999/xlink" width="32" height="32">
<defs>
<symbol id="icon-favicon" viewBox="0 0 32 32">
<path fill="#0a224a" style="fill: var(--color1, #0a224a)" d="M2.923 11.335c0.968 0.188 1.701 1.041 1.701 2.063v2.757h10.697v-10.43h-11.788c-0.258 0-0.508 0.106-0.687 0.291-0.162 0.168-0.247 0.384-0.238 0.607 0.034 0.891 0.14 2.474 0.315 4.71v0z"></path>
<path fill="#0a224a" style="fill: var(--color1, #0a224a)" d="M29.478 12.654c-0.41 0-0.744 0.334-0.744 0.744v3.038c0.6 0.354 1.004 1.006 1.004 1.752v2.465c0 0.167-0.011 0.331-0.059 0.483-0.126 0.397-0.386 0.983-1.023 1.313l0.872 3.319c0.080 0.305 0.355 0.507 0.656 0.507 0.057 0 0.115-0.007 0.173-0.023 0.363-0.095 0.58-0.467 0.484-0.829l-1.041-3.963h0.736c0.403 0 0.723-0.334 0.745-0.777 0.087-1.77 0.654-6.753 0.719-7.318-0.017-0.395-0.344-0.711-0.743-0.711h-1.779z"></path>
<path fill="#0a224a" style="fill: var(--color1, #0a224a)" d="M0.743 12.654c-0.399 0-0.726 0.316-0.743 0.711 0.065 0.565 0.632 5.548 0.719 7.318 0.022 0.443 0.342 0.777 0.745 0.777h0.736l-1.041 3.963c-0.095 0.363 0.122 0.734 0.484 0.829 0.058 0.015 0.116 0.023 0.173 0.023 0.301 0 0.576-0.202 0.656-0.507l0.872-3.319c-0.59-0.446-0.949-0.963-1.024-1.312-0.033-0.156-0.059-0.317-0.059-0.484v-2.465c0-0.746 0.404-1.399 1.005-1.752v-3.038c0-0.41-0.334-0.744-0.744-0.744h-1.779z"></path>
<path fill="#0a224a" style="fill: var(--color1, #0a224a)" d="M27.376 13.398c0-1.022 0.733-1.875 1.701-2.063v0c0.175-2.236 0.281-3.819 0.315-4.71 0.009-0.223-0.076-0.439-0.238-0.607-0.178-0.185-0.428-0.291-0.686-0.291h-11.788v10.43h10.697v-2.758z"></path>
<path fill="#0a224a" style="fill: var(--color1, #0a224a)" d="M27.706 17.514h-23.412c-0.372 0-0.674 0.302-0.674 0.674v2.465c0 0.224 0.11 0.423 0.279 0.545h0.001c0.003 0.002 0.005 0.004 0.008 0.006 0.109 0.077 0.243 0.123 0.386 0.123h23.412c0.144 0 0.277-0.046 0.386-0.122 0.003-0.002 0.005-0.005 0.008-0.007h0.001c0.169-0.123 0.279-0.321 0.279-0.545v-2.465c0-0.372-0.302-0.674-0.674-0.674z"></path>
</symbol>
</defs>
</svg>