<svg aria-hidden="true" style="position: absolute; width: 0; height: 0; overflow: hidden;" version="1.1" xmlns="http://www.w3.org/2000/svg" xmlns:xlink="http://www.w3.org/1999/xlink">
<defs>
<symbol id="icon-burger" viewBox="0 0 32 32">
<path fill="none" stroke="#0a224a" style="stroke: var(--color1, #0a224a)" stroke-linejoin="round" stroke-linecap="round" stroke-miterlimit="4" stroke-width="2" d="M28 13.333h-24"></path>
<path fill="none" stroke="#0a224a" style="stroke: var(--color1, #0a224a)" stroke-linejoin="round" stroke-linecap="round" stroke-miterlimit="4" stroke-width="2" d="M28 8h-24"></path>
<path fill="none" stroke="#0a224a" style="stroke: var(--color1, #0a224a)" stroke-linejoin="round" stroke-linecap="round" stroke-miterlimit="4" stroke-width="2" d="M28 18.667h-24"></path>
<path fill="none" stroke="#0a224a" style="stroke: var(--color1, #0a224a)" stroke-linejoin="round" stroke-linecap="round" stroke-miterlimit="4" stroke-width="2" d="M28 24h-24"></path>
</symbol>
<symbol id="icon-logo" viewBox="0 0 229 32">
<path d="M0 32v-32h5.702l14.084 10.383h0.213l14.084-10.383h5.702v32h-6.808v-23.049l-9.659 6.803v16.246h-6.808v-16.246l-9.701-6.803v23.049h-6.808z"></path>
<path d="M46.174 32v-32h6.808v32h-6.808z"></path>
<path d="M59.356 32v-32h6.893l21.53 23.004v-23.004h6.808v32h-6.893l-21.53-23.049v23.049h-6.808z"></path>
<path d="M100.96 32v-32h6.808v32h-6.808z"></path>
<path d="M114.142 32v-32h5.701l14.084 10.383h0.213l14.084-10.383h5.702v32h-6.808v-23.049l-9.659 6.803v16.246h-6.808v-16.246l-9.701-6.803v23.049h-6.808z"></path>
<path d="M157.764 32l13.701-32h10.51l13.701 32h-7.404l-2.893-6.758h-17.317l-2.893 6.758h-7.403zM170.528 19.424h12.382l-5.914-13.829h-0.553l-5.914 13.829z"></path>
<path d="M199.51 32v-32h6.808v26.182h22.253v5.818h-29.061z"></path>
</symbol>
<symbol id="icon-close" viewBox="0 0 32 32">
<path fill="none" stroke="#0a224a" style="stroke: var(--color1, #0a224a)" stroke-linejoin="round" stroke-linecap="round" stroke-miterlimit="4" stroke-width="2" d="M24 8l-16 16"></path>
<path fill="none" stroke="#0a224a" style="stroke: var(--color1, #0a224a)" stroke-linejoin="round" stroke-linecap="round" stroke-miterlimit="4" stroke-width="2" d="M8 8l16 16"></path>
</symbol>
<symbol id="icon-facebook" viewBox="0 0 32 32">
<path d="M29 16c0-7.18-5.82-13-13-13s-13 5.82-13 13c0 7.18 5.82 13 13 13v0c7.177-0.007 12.993-5.823 13-12.999v-0.001zM17 26.95v-7.95h3c0.552 0 1-0.448 1-1s-0.448-1-1-1v0h-3v-3c0-1.105 0.895-2 2-2v0h2c0.552 0 1-0.448 1-1s-0.448-1-1-1v0h-2c-2.206 0.007-3.993 1.794-4 3.999v3.001h-3c-0.552 0-1 0.448-1 1s0.448 1 1 1v0h3v7.95c-5.629-0.529-10-5.231-10-10.954 0-6.075 4.925-11 11-11s11 4.925 11 11c0 5.723-4.371 10.425-9.956 10.951l-0.044 0.003z"></path>
</symbol>
<symbol id="icon-youtube" viewBox="0 0 32 32">
<path d="M20.55 15.162l-6-4c-0.158-0.102-0.35-0.162-0.556-0.162-0.171 0-0.333 0.041-0.475 0.115l0.006-0.003c-0.315 0.173-0.525 0.502-0.525 0.88 0 0.003 0 0.005 0 0.008v-0 8c-0 0.002-0 0.005-0 0.008 0 0.378 0.21 0.707 0.52 0.877l0.005 0.003c0.148 0.074 0.31 0.112 0.475 0.112 0.195-0.002 0.386-0.058 0.55-0.162l6-4c0.275-0.181 0.454-0.488 0.454-0.838s-0.179-0.656-0.45-0.835l-0.004-0.002zM15 18.138v-4.275l3.2 2.138-3.2 2.138zM29.288 8.725c-0.241-0.944-0.915-1.692-1.793-2.031l-0.020-0.007c-4.275-1.65-11.1-1.637-11.475-1.637s-7.2-0.013-11.475 1.637c-0.897 0.346-1.571 1.094-1.808 2.017l-0.004 0.020c-0.326 1.238-0.713 3.512-0.713 7.275s0.387 6.038 0.712 7.275c0.241 0.944 0.915 1.692 1.793 2.031l0.020 0.007c4.1 1.587 10.526 1.638 11.388 1.638h0.174c0.862 0 7.288-0.050 11.388-1.638 0.898-0.346 1.571-1.094 1.808-2.017l0.004-0.020c0.326-1.238 0.713-3.512 0.713-7.275s-0.387-6.038-0.712-7.275zM27.35 22.776c-0.078 0.31-0.296 0.556-0.581 0.672l-0.007 0.002c-3.962 1.526-10.687 1.5-10.762 1.5h-0.013c-0.062 0-6.787 0.026-10.75-1.5-0.292-0.118-0.509-0.365-0.586-0.668l-0.001-0.007c-0.3-1.138-0.65-3.226-0.65-6.776s0.35-5.638 0.65-6.775c0.077-0.31 0.295-0.557 0.581-0.673l0.007-0.002c3.813-1.462 10.212-1.499 10.738-1.499h0.025c0.075 0 6.8-0.026 10.762 1.499 0.292 0.118 0.51 0.365 0.586 0.668l0.001 0.007c0.301 1.138 0.65 3.225 0.65 6.775s-0.35 5.638-0.65 6.775z"></path>
</symbol>
<symbol id="icon-instagram" viewBox="0 0 32 32">
<path d="M16 10c-3.314 0-6 2.686-6 6s2.686 6 6 6v0c3.314 0 6-2.686 6-6s-2.686-6-6-6v0zM16 20c-2.209 0-4-1.791-4-4s1.791-4 4-4c2.209 0 4 1.791 4 4v0c-0.007 2.206-1.794 3.993-3.999 4h-0.001zM21.5 3.5h-11c-3.866 0-7 3.134-7 7v0 11c0 3.866 3.134 7 7 7v0h11c3.866 0 7-3.134 7-7v0-11c0-3.866-3.134-7-7-7v0zM26.5 21.5c0 2.761-2.239 5-5 5v0h-11c-2.761 0-5-2.239-5-5v0-11c0-2.761 2.239-5 5-5v0h11c2.761 0 5 2.239 5 5v0 11zM24 9.5c0 0.828-0.672 1.5-1.5 1.5s-1.5-0.672-1.5-1.5v0c0-0.828 0.672-1.5 1.5-1.5s1.5 0.672 1.5 1.5v0z"></path>
</symbol>
<symbol id='icon-check' viewBox="0 0 40 32">
<path d="M33.784 1.020c0.659-0.637 1.558-1.030 2.548-1.030 2.007 0 3.637 1.611 3.668 3.611l0 0.003c0.001 0.028 0.001 0.061 0.001 0.095 0 0.965-0.368 1.844-0.972 2.504l0.003-0.003-19.576 24.616c-0.674 0.728-1.635 1.182-2.702 1.182-0.495 0-0.967-0.098-1.398-0.275l0.024 0.009c-0.477-0.197-0.884-0.473-1.224-0.816l-0-0-12.984-13.052c-0.724-0.677-1.175-1.638-1.175-2.705 0-0.501 0.1-0.98 0.28-1.416l-0.009 0.025c0.564-1.367 1.887-2.312 3.43-2.312 0.018 0 0.035 0 0.053 0l-0.003-0c1.038 0.019 1.967 0.467 2.622 1.174l0.002 0.002 10.276 10.328 17.040-21.832c0.032-0.039 0.065-0.074 0.1-0.108l-0.004-0z"></path>
</symbol>
<symbol id="icon-input-error" viewBox="0 0 32 32">
<path d="M14.667 20h2.667v2.667h-2.667v-2.667zM14.667 9.333h2.667v8h-2.667v-8zM15.987 2.667c-7.36 0-13.32 5.973-13.32 13.333s5.96 13.333 13.32 13.333c7.373 0 13.347-5.973 13.347-13.333s-5.973-13.333-13.347-13.333zM16 26.667c-5.893 0-10.667-4.773-10.667-10.667s4.773-10.667 10.667-10.667 10.667 4.773 10.667 10.667-4.773 10.667-10.667 10.667z"></path>
</symbol>
</defs>
</svg>
